<svg width="64" height="64" viewBox="0 0 64 64" fill="none" xmlns="http://www.w3.org/2000/svg">
<path fill-rule="evenodd" clip-rule="evenodd" d="M60.8 56.0003C60.3589 56.0003 60 55.6414 60 55.2003C60 54.7591 60.3589 54.4003 60.8 54.4003C61.2411 54.4003 61.6 54.7591 61.6 55.2003C61.6 55.6414 61.2411 56.0003 60.8 56.0003Z" fill="#ECECFE"/>
<path fill-rule="evenodd" clip-rule="evenodd" d="M31.1999 3.20022C30.7588 3.20022 30.3999 2.84134 30.3999 2.40022C30.3999 1.95906 30.7588 1.60022 31.1999 1.60022C31.641 1.60022 31.9999 1.95906 31.9999 2.40022C31.9999 2.84134 31.641 3.20022 31.1999 3.20022Z" fill="#ECECFE"/>
<path fill-rule="evenodd" clip-rule="evenodd" d="M3.1999 49.6002C2.75878 49.6002 2.3999 49.2414 2.3999 48.8002C2.3999 48.3591 2.75878 48.0002 3.1999 48.0002C3.64102 48.0002 3.9999 48.3591 3.9999 48.8002C3.9999 49.2414 3.64102 49.6002 3.1999 49.6002Z" fill="#ECECFE"/>
<path d="M54.5597 54.2821C55.355 54.2821 55.9997 53.6373 55.9997 52.8421C55.9997 52.0468 55.355 51.4021 54.5597 51.4021C53.7644 51.4021 53.1197 52.0468 53.1197 52.8421C53.1197 53.6373 53.7644 54.2821 54.5597 54.2821Z" fill="#E1000F"/>
<path fill-rule="evenodd" clip-rule="evenodd" d="M15.623 11.1952C15.9541 11.4877 15.9855 11.9933 15.6931 12.3244L10.1995 18.5452C9.907 18.8764 9.40144 18.9078 9.07026 18.6153C8.73909 18.3229 8.7077 17.8173 9.00017 17.4861L14.4938 11.2653C14.7862 10.9342 15.2918 10.9028 15.623 11.1952Z" fill="#E1000F"/>
<path fill-rule="evenodd" clip-rule="evenodd" d="M20.8409 10.9966C21.0539 10.9827 21.2636 11.0546 21.4233 11.1961L46.0977 33.0553C46.2066 33.1517 46.2871 33.276 46.3306 33.4147L51.0538 48.4771C51.1369 48.7423 51.0765 49.0317 50.8942 49.2414C50.7118 49.4511 50.4337 49.5512 50.1595 49.5057L34.7515 46.9497C34.6042 46.9253 34.4667 46.8601 34.3545 46.7616L13.3665 28.3296C13.0345 28.0381 13.0018 27.5326 13.2933 27.2006C13.5849 26.8686 14.0903 26.8359 14.4223 27.1274L35.2387 45.4087L49.1378 47.7144L44.8704 34.1055L20.9666 12.9291L16.1108 18.5119C15.8209 18.8453 15.3156 18.8805 14.9822 18.5905C14.6488 18.3006 14.6136 17.7953 14.9036 17.4619L20.2892 11.2699C20.4293 11.1089 20.6279 11.0105 20.8409 10.9966Z" fill="#000091"/>
<path fill-rule="evenodd" clip-rule="evenodd" d="M46.0967 33.0544C46.4279 33.3469 46.4593 33.8524 46.1668 34.1836L40.6732 40.4044C40.3807 40.7356 39.8752 40.767 39.544 40.4745C39.2128 40.182 39.1814 39.6765 39.4739 39.3453L44.9675 33.1245C45.26 32.7933 45.7655 32.7619 46.0967 33.0544Z" fill="#000091"/>
<path fill-rule="evenodd" clip-rule="evenodd" d="M26.8232 26.3953C27.1543 26.6877 27.1857 27.1933 26.8933 27.5245L21.3997 33.7453C21.1072 34.0764 20.6016 34.1078 20.2705 33.8154C19.9393 33.5229 19.9079 33.0173 20.2004 32.6862L25.694 26.4654C25.9864 26.1342 26.492 26.1028 26.8232 26.3953Z" fill="#000091"/>
<path fill-rule="evenodd" clip-rule="evenodd" d="M47.4054 39.7921C47.7374 40.0835 47.7704 40.589 47.4789 40.921L41.5389 47.689C41.2475 48.0211 40.742 48.0541 40.4099 47.7626C40.0779 47.4712 40.0449 46.9657 40.3364 46.6336L46.2764 39.8656C46.5678 39.5336 47.0733 39.5006 47.4054 39.7921Z" fill="#000091"/>
<path fill-rule="evenodd" clip-rule="evenodd" d="M20.6399 52.8421C20.6399 52.4003 20.9981 52.0421 21.4399 52.0421H50.2399C50.6818 52.0421 51.0399 52.4003 51.0399 52.8421C51.0399 53.284 50.6818 53.6421 50.2399 53.6421H21.4399C20.9981 53.6421 20.6399 53.284 20.6399 52.8421Z" fill="#000091"/>
<path fill-rule="evenodd" clip-rule="evenodd" d="M12 52.8421C12 52.4003 12.3582 52.0421 12.8 52.0421H18.74C19.1818 52.0421 19.54 52.4003 19.54 52.8421C19.54 53.284 19.1818 53.6421 18.74 53.6421H12.8C12.3582 53.6421 12 53.284 12 52.8421Z" fill="#000091"/>
<path fill-rule="evenodd" clip-rule="evenodd" d="M24.7405 10.6651C25.0361 10.3367 25.5419 10.3101 25.8703 10.6056L41.8703 25.0056C42.1988 25.3012 42.2254 25.807 41.9298 26.1354C41.6342 26.4639 41.1284 26.4905 40.8 26.1949L24.8 11.7949C24.4716 11.4993 24.445 10.9935 24.7405 10.6651Z" fill="#000091"/>
</svg>
