<svg width="64" height="64" viewBox="0 0 64 64" fill="none" xmlns="http://www.w3.org/2000/svg">
<path fill-rule="evenodd" clip-rule="evenodd" d="M60.0002 49.6002C59.5591 49.6002 59.2002 49.2414 59.2002 48.8002C59.2002 48.3591 59.5591 48.0002 60.0002 48.0002C60.4413 48.0002 60.8002 48.3591 60.8002 48.8002C60.8002 49.2414 60.4413 49.6002 60.0002 49.6002Z" fill="#ECECFE"/>
<path fill-rule="evenodd" clip-rule="evenodd" d="M2.4001 43.2002C1.95898 43.2002 1.6001 42.8413 1.6001 42.4002C1.6001 41.9591 1.95898 41.6002 2.4001 41.6002C2.84122 41.6002 3.2001 41.9591 3.2001 42.4002C3.2001 42.8413 2.84122 43.2002 2.4001 43.2002Z" fill="#ECECFE"/>
<path fill-rule="evenodd" clip-rule="evenodd" d="M44.0002 3.20022C43.5591 3.20022 43.2002 2.84134 43.2002 2.40022C43.2002 1.95906 43.5591 1.60022 44.0002 1.60022C44.4413 1.60022 44.8002 1.95906 44.8002 2.40022C44.8002 2.84134 44.4413 3.20022 44.0002 3.20022Z" fill="#ECECFE"/>
<path d="M38.4301 37.3857C38.5506 36.96 38.9994 36.7111 39.4324 36.8296C41.3365 37.3508 42.7963 38.8187 43.1827 40.6388C43.2745 41.0714 42.9923 41.4952 42.5523 41.5854C42.1123 41.6757 41.6811 41.3983 41.5893 40.9657C41.33 39.7446 40.3262 38.7351 38.9958 38.3709C38.5627 38.2524 38.3095 37.8113 38.4301 37.3857Z" fill="#E1000F"/>
<path fill-rule="evenodd" clip-rule="evenodd" d="M30.4002 41.6003C30.4002 37.1881 33.9882 33.6003 38.4002 33.6003C42.8122 33.6003 46.4002 37.1881 46.4002 41.6003C46.4002 43.6531 45.6233 45.5277 44.3481 46.9454L49.0643 55.1141C49.7271 56.262 49.3337 57.7299 48.1859 58.3926C47.0789 59.0316 45.6745 58.6887 44.9814 57.6342L44.9074 57.5141L40.2181 49.392C39.6339 49.5283 39.0253 49.6003 38.4002 49.6003C33.9883 49.6003 30.4002 46.0122 30.4002 41.6003ZM41.7589 48.8608L46.293 56.7141C46.514 57.0968 47.0032 57.2279 47.3859 57.0069C47.7412 56.8018 47.8796 56.3653 47.7207 55.9976L47.6787 55.9141L43.1355 48.0451C42.7071 48.3607 42.2463 48.6346 41.7589 48.8608ZM44.8002 41.6003C44.8002 38.0718 41.9286 35.2003 38.4002 35.2003C34.8718 35.2003 32.0002 38.0718 32.0002 41.6003C32.0002 45.1285 34.872 48.0003 38.4002 48.0003C41.9284 48.0003 44.8002 45.1285 44.8002 41.6003Z" fill="#E1000F"/>
<path d="M32.8002 14.4003C33.242 14.4003 33.6002 14.7584 33.6002 15.2003C33.6002 15.6105 33.2914 15.9487 32.8935 15.9949L32.8002 16.0003H20.0002C19.5584 16.0003 19.2002 15.6421 19.2002 15.2003C19.2002 14.79 19.509 14.4519 19.9069 14.4056L20.0002 14.4003H32.8002Z" fill="#E1000F"/>
<path d="M40.8002 19.2003C41.242 19.2003 41.6002 19.5584 41.6002 20.0003C41.6002 20.4105 41.2914 20.7487 40.8935 20.7949L40.8002 20.8003H20.0002C19.5584 20.8003 19.2002 20.4421 19.2002 20.0003C19.2002 19.59 19.509 19.2519 19.9069 19.2056L20.0002 19.2003H40.8002Z" fill="#E1000F"/>
<path d="M36.8002 24.8003C36.8002 24.3584 36.442 24.0003 36.0002 24.0003H20.0002L19.9069 24.0056C19.509 24.0519 19.2002 24.39 19.2002 24.8003C19.2002 25.2421 19.5584 25.6003 20.0002 25.6003H36.0002L36.0935 25.5949C36.4914 25.5487 36.8002 25.2105 36.8002 24.8003Z" fill="#E1000F"/>
<path d="M15.1999 9.60022H45.5999C46.0417 9.60022 46.3999 9.95838 46.3999 10.4002L46.3928 33.602C46.4166 34.6864 44.8141 34.6987 44.7887 33.596L44.7999 11.2002H15.9999V52.8002H37.216C38.7999 52.8002 37.1999 52.8002 39.9923 52.8025C41.0771 52.8033 41.0731 54.394 39.997 54.3942L15.1999 54.4002C14.7581 54.4002 14.3999 54.0421 14.3999 53.6002V10.4002C14.3999 9.95838 14.7581 9.60022 15.1999 9.60022Z" fill="#000091"/>
<path d="M41.587 55.9971L21.5994 56.0002L21.5062 56.0056C21.1086 56.0518 20.7999 56.39 20.7999 56.8002C20.7999 57.2421 21.1578 57.6002 21.5994 57.6002L41.5816 57.5668C42.6686 57.5933 42.6749 55.9933 41.587 55.9971Z" fill="#000091"/>
<path d="M49.5999 48.8108V16.8002L49.5945 16.7069C49.5483 16.309 49.2102 16.0002 48.7999 16.0002L48.7066 16.0056C48.3088 16.0518 47.9999 16.39 47.9999 16.8002V48.1706C47.9999 48.8002 47.9911 48.1707 47.9999 48.8002C48.0149 49.8716 49.6093 49.8625 49.5999 48.8108Z" fill="#000091"/>
<path d="M30.3637 48.0205C31.4931 48.0282 31.4583 49.6075 30.3813 49.6015L19.9974 49.6002C19.5569 49.6002 19.1999 49.2421 19.1999 48.8002C19.1999 48.39 19.5078 48.0518 19.9044 48.0056L19.9974 48.0002L30.3637 48.0205Z" fill="#000091"/>
<path d="M27.9874 43.2092C29.1108 43.1873 29.0299 44.7887 27.9874 44.8016L19.999 44.8002C19.5576 44.8002 19.1999 44.4421 19.1999 44.0002C19.1999 43.59 19.5084 43.2518 19.9058 43.2056L19.999 43.2002L27.9874 43.2092Z" fill="#000091"/>
<path d="M27.9803 38.3978C29.0964 38.4068 29.0464 39.9926 27.9899 39.9978L19.9974 39.9864C19.557 39.9864 19.1999 39.6313 19.1999 39.1933C19.1999 38.7866 19.5078 38.4514 19.9044 38.4055L19.9974 38.4002L27.9803 38.3978Z" fill="#000091"/>
<path d="M30.4097 33.6181C31.4915 33.6288 31.4472 35.2184 30.4027 35.2001L19.9999 35.1917C19.5581 35.1917 19.1999 34.8355 19.1999 34.396C19.1999 33.9879 19.5088 33.6515 19.9066 33.6056L19.9999 33.6002L30.4097 33.6181Z" fill="#000091"/>
<path d="M40.7999 28.8002C41.2417 28.8002 41.5999 29.1584 41.5999 29.6002C41.5999 30.0105 41.2911 30.3486 40.8932 30.3949L40.7999 30.4002H19.9999C19.5581 30.4002 19.1999 30.0421 19.1999 29.6002C19.1999 29.19 19.5088 28.8518 19.9066 28.8056L19.9999 28.8002H40.7999Z" fill="#000091"/>
</svg>
